<svg width="1025" height="337" xmlns="http://www.w3.org/2000/svg" preserveAspectRatio="xMidYMid meet" version="1.0">

 <g>
  <title>Layer 1</title>
  <g stroke="null" id="svg_1" fill="#000000" transform="translate(0 337) scale(0.1 -0.1)">
   <path stroke="null" fill="#7f003f" id="svg_2" d="m6735,3108c-142,-49 -250,-158 -294,-297c-14,-44 -14,-205 0,-250c35,-113 104,-210 183,-256c55,-32 161,-66 211,-67c109,-2 240,43 313,109c66,59 93,104 127,210c25,76 26,85 13,130l-14,48l-207,3l-207,2l0,-75l0,-75l108,0c133,0 140,-4 113,-57c-42,-83 -134,-139 -211,-129c-120,16 -122,17 -180,75c-93,93 -114,204 -61,316c64,136 207,193 329,131c27,-14 54,-32 62,-41c32,-38 47,-38 102,3c85,63 85,63 33,115c-51,49 -134,97 -170,97c-13,0 -27,5 -30,10c-8,13 -181,11 -220,-2z"/>
   <path stroke="null" fill="#7f003f" id="svg_3" d="m5103,3097c-10,-16 -12,-797 -2,-824c8,-23 11,-23 173,-23c182,0 247,11 325,57c146,85 232,275 202,443c-23,136 -118,264 -235,320c-59,28 -67,29 -258,34c-148,4 -199,2 -205,-7zm377,-170c41,-18 100,-77 126,-127c28,-53 26,-191 -3,-245c-59,-106 -148,-151 -283,-143l-55,3l-3,255c-1,140 0,261 3,269c7,18 165,10 215,-12z"/>
   <path stroke="null" fill="#7f003f" id="svg_4" d="m6035,3098c-3,-7 -4,-200 -3,-428l3,-415l80,0l80,0l0,425l0,425l-78,3c-56,2 -79,-1 -82,-10z"/>
   <path stroke="null" fill="#7f003f" id="svg_5" d="m7517,3103c-3,-5 0,-27 6,-50c8,-30 8,-52 0,-80c-7,-25 -11,-156 -10,-378l2,-340l87,-3l87,-3l-2,426l-1,425l-61,0c-33,0 -70,3 -81,6c-12,3 -24,2 -27,-3z"/>
   <path stroke="null" fill="#7f003f" id="svg_6" d="m7930,3095c-6,-8 -10,-43 -8,-82l3,-68l85,-3c46,-2 90,-8 97,-14c10,-8 13,-83 13,-344l0,-334l75,0c70,0 76,2 84,23c5,13 9,166 8,340c0,174 1,319 4,321c3,3 45,6 94,8l90,3l6,60c4,33 3,67 -2,76c-13,26 -59,30 -308,28c-175,-1 -233,-4 -241,-14z"/>
   <path stroke="null" fill="#7f003f" id="svg_7" d="m9592,3098c-7,-10 -10,-139 -9,-428l2,-415l247,-3l246,-2l4,67c7,111 19,103 -163,103l-159,0l-1,38c-1,20 -2,174 -3,342l-1,305l-76,3c-54,2 -79,-1 -87,-10z"/>
   <path stroke="null" fill="#7f003f" id="svg_8" d="m3582,3089c-83,-25 -145,-134 -122,-218c16,-61 83,-126 138,-135c108,-17 204,52 218,157c17,121 -114,231 -234,196z"/>
   <path stroke="null" fill="#7f003f" id="svg_9" d="m4039,3077c-66,-35 -100,-90 -100,-161c0,-69 21,-109 79,-150c81,-57 203,-34 255,48c58,92 21,218 -77,265c-55,27 -103,26 -157,-2z"/>
   <path stroke="null" fill="#7f003f" id="svg_10" d="m4550,3093c-32,-13 -81,-57 -101,-89c-15,-25 -21,-50 -20,-94c0,-71 17,-104 73,-143c34,-24 51,-29 99,-29c47,0 68,6 104,29c25,15 45,32 45,37c0,5 7,17 15,26c8,9 18,37 21,63c6,38 2,56 -20,99c-34,67 -78,98 -148,103c-29,3 -60,2 -68,-2z"/>
   <path stroke="null" fill="#7f003f" id="svg_11" d="m8885,2822c-65,-147 -146,-332 -181,-412c-35,-79 -64,-148 -64,-153c0,-4 39,-6 88,-5l87,3l23,50c50,111 31,100 176,100c104,0 130,-3 137,-15c5,-8 21,-42 37,-75l27,-60l83,-3c52,-2 82,1 82,8c0,12 -119,296 -200,475c-14,33 -55,124 -90,202c-35,78 -69,144 -76,147c-8,3 -52,-87 -129,-262zm164,-168c31,-81 30,-84 -33,-84c-62,0 -69,9 -48,60c8,19 18,45 23,58c14,37 35,25 58,-34z"/>
   <path stroke="null" fill="#7f003f" id="svg_12" d="m3539,2581c-64,-40 -101,-124 -80,-181c6,-17 16,-43 22,-60c7,-17 31,-43 57,-60c122,-81 277,3 277,151c0,143 -155,227 -276,150z"/>
   <path stroke="null" fill="#7f003f" id="svg_13" d="m4044,2599c-56,-33 -61,-38 -83,-73c-46,-77 -18,-193 61,-245c54,-36 149,-36 199,0c53,40 79,91 79,155c0,64 -21,104 -75,146c-48,36 -134,45 -181,17z"/>
   <path stroke="null" fill="#7f003f" id="svg_14" d="m4513,2585c-56,-38 -79,-70 -87,-119c-10,-60 7,-114 51,-156c52,-49 73,-58 140,-58c50,0 64,4 94,30c59,48 94,140 71,188c-5,9 -15,30 -23,46c-8,16 -31,43 -52,59c-29,24 -49,32 -95,35c-50,3 -62,0 -99,-25z"/>
   <path stroke="null" fill="#7f003f" id="svg_15" d="m2095,1841c-70,-23 -111,-51 -171,-113c-89,-93 -124,-179 -124,-309c0,-124 57,-248 154,-337c88,-81 226,-121 345,-101c127,22 220,79 289,178c51,72 74,139 75,221c3,107 18,100 -218,100l-205,0l0,-75l0,-75l103,0c130,0 136,-4 108,-63c-45,-94 -176,-140 -293,-105c-50,15 -132,88 -160,142c-30,57 -29,163 1,227c47,100 134,158 234,159c69,0 116,-18 169,-65c22,-21 44,-33 50,-28c18,10 47,34 84,68c32,29 33,31 16,50c-9,11 -35,34 -57,50c-22,17 -44,36 -48,42c-4,7 -17,13 -27,13c-10,0 -22,5 -25,10c-3,6 -17,10 -30,10c-13,0 -27,5 -30,10c-10,17 -184,11 -240,-9z"/>
   <path stroke="null" fill="#7f003f" id="svg_16" d="m8310,1841c-116,-45 -198,-120 -251,-227c-33,-67 -34,-72 -34,-194c0,-115 2,-130 27,-180c14,-30 38,-68 53,-85c15,-16 30,-35 33,-40c4,-6 27,-27 52,-47c167,-134 414,-119 568,34c86,85 138,219 130,331l-3,42l-210,0l-209,0l-6,-23c-3,-13 -3,-45 -2,-72l4,-50l101,0c126,0 135,-5 112,-54c-83,-174 -357,-165 -450,14c-27,53 -32,166 -9,229c21,60 82,126 139,152c80,37 214,13 269,-50c11,-11 25,-21 33,-21c21,0 123,80 123,97c0,32 -108,113 -191,143c-70,26 -213,26 -279,1z"/>
   <path stroke="null" fill="#7f003f" id="svg_17" d="m134,1836c-3,-7 -4,-200 -2,-427l3,-414l260,0l260,0l0,85l0,85l-177,3l-178,2l0,100l0,100l68,1c37,0 112,1 167,2l100,2l-1,72c-1,40 -4,79 -7,87c-5,12 -34,15 -157,15c-83,1 -156,3 -161,6c-13,9 -11,99 3,113c8,8 58,12 159,12c81,0 154,3 163,6c23,9 23,149 0,158c-9,3 -123,6 -255,6c-195,0 -241,-3 -245,-14z"/>
   <path stroke="null" fill="#7f003f" id="svg_18" d="m922,1840l-22,-9l2,-418l3,-418l69,-3c38,-2 73,1 79,7c5,5 9,115 9,270c0,167 3,263 10,267c12,8 86,-63 181,-175c226,-266 315,-359 322,-339c3,7 4,195 3,418l-3,405l-73,2c-42,0 -75,-3 -79,-10c-3,-6 -5,-86 -4,-178c2,-111 -1,-169 -8,-174c-11,-6 -153,135 -294,290l-68,75l-52,-1c-29,0 -62,-4 -75,-9z"/>
   <path stroke="null" fill="#7f003f" id="svg_19" d="m2897,1843c-4,-3 -7,-197 -7,-430l0,-423l85,0l85,0l0,430l0,430l-78,0c-43,0 -82,-3 -85,-7z"/>
   <path stroke="null" fill="#7f003f" id="svg_20" d="m3332,1838c-13,-13 -15,-367 -3,-678l6,-165l75,0l75,0l1,268c0,147 4,270 8,274c8,8 140,-120 185,-180c15,-20 93,-110 172,-199l144,-161l5,399c3,219 2,409 -2,421c-9,28 -39,35 -103,25l-50,-7l0,-168c-1,-106 -5,-171 -12,-178c-15,-15 -38,1 -101,75c-80,93 -117,134 -194,214l-70,72l-62,0c-35,0 -67,-5 -74,-12z"/>
   <path stroke="null" fill="#7f003f" id="svg_21" d="m4277,1843c-3,-5 -5,-198 -6,-431l-1,-422l261,2l261,3l3,83c1,45 0,82 -4,82c-3,0 -78,1 -166,3c-88,1 -166,6 -172,10c-19,12 -18,186 1,193c8,3 83,6 168,7l153,2l0,85l0,85l-165,5l-165,5l-3,48c-5,76 -3,77 185,77l164,0l-3,83l-3,82l-252,3c-138,1 -254,-1 -256,-5z"/>
   <path stroke="null" fill="#7f003f" id="svg_22" d="m5048,1538c-2,-172 -2,-366 0,-431l3,-117l257,2l257,3l3,81c3,99 16,94 -200,94l-158,0l-2,78c-1,84 0,114 7,120c2,2 75,5 162,6l158,1l0,85l0,85l-110,2c-60,1 -134,2 -162,3l-53,0l0,49c0,85 -8,81 170,81c116,0 161,3 167,13c11,18 10,146 -2,150c-5,2 -119,5 -252,6l-242,3l-3,-314z"/>
   <path stroke="null" fill="#7f003f" id="svg_23" d="m5816,1834c-8,-25 0,-820 9,-834c3,-5 40,-10 81,-10l74,0l2,58c1,31 1,85 0,120l-3,62l78,0c142,0 210,-62 212,-193l1,-48l83,3l82,3l-4,85c-4,93 -21,139 -72,192c-16,17 -29,33 -29,36c0,2 16,22 36,44c46,52 60,87 68,176c6,64 4,78 -17,125c-28,61 -96,132 -158,165c-40,22 -60,24 -240,29c-188,6 -197,5 -203,-13zm388,-176c78,-64 86,-135 26,-213c-43,-56 -68,-65 -176,-65c-76,0 -74,-5 -74,155c0,106 3,145 13,148c6,3 49,5 94,5c75,-1 84,-3 117,-30z"/>
   <path stroke="null" fill="#7f003f" id="svg_24" d="m6698,1843c-17,-4 -18,-33 -18,-429l0,-424l85,0l85,0l-2,428l-3,427l-65,2c-36,0 -73,-1 -82,-4z"/>
   <path stroke="null" fill="#7f003f" id="svg_25" d="m7128,1844c-4,-3 -8,-197 -8,-430l0,-424l80,0l80,0l0,275c0,233 2,275 14,275c8,0 21,-8 28,-19c14,-19 123,-143 218,-246c31,-33 94,-103 140,-155c111,-124 108,-121 112,-113c2,5 4,195 3,423l0,415l-80,0l-80,0l-5,-179c-3,-113 -9,-181 -16,-183c-5,-2 -57,47 -114,109c-57,62 -130,139 -162,170c-32,31 -58,61 -58,67c0,6 -19,11 -44,11c-24,0 -56,3 -72,6c-16,3 -32,2 -36,-2z"/>
   <path stroke="null" fill="#7f003f" id="svg_26" d="m9506,1842c-3,-5 3,-24 13,-43c10,-19 48,-91 84,-160c37,-70 67,-132 67,-138c0,-6 -22,-20 -50,-32c-55,-23 -114,-82 -136,-135c-19,-45 -18,-106 3,-171c21,-68 60,-115 120,-144c45,-22 62,-23 266,-27l217,-4l0,86l0,87l-172,-1c-236,-2 -226,-3 -253,25c-47,46 -25,119 43,140c36,11 59,-3 91,-55c17,-28 36,-50 43,-51c25,-2 153,3 157,6c2,2 -6,17 -18,33c-12,17 -21,36 -21,44c0,8 -4,18 -9,24c-20,19 -182,355 -176,364c3,6 54,10 115,10c125,0 124,-1 118,96l-3,49l-247,3c-136,1 -249,-2 -252,-6z"/>
   <path stroke="null" fill="#7f003f" id="svg_27" d="m181,545c-57,-66 -64,-82 -58,-135c11,-92 55,-140 129,-140c46,0 108,43 108,74c0,20 -29,20 -54,1c-11,-8 -32,-15 -46,-15c-44,0 -60,20 -67,82c-8,75 1,106 32,114c32,8 83,-13 90,-37c7,-23 53,-26 61,-5c15,40 -56,96 -122,96c-35,0 -47,-6 -73,-35z"/>
   <path stroke="null" fill="#7f003f" id="svg_28" d="m563,567c-12,-7 -35,-29 -52,-51c-26,-32 -31,-48 -31,-90c0,-80 25,-117 94,-141c57,-19 58,-19 94,0c73,41 100,124 68,208c-26,70 -114,107 -173,74zm101,-66c13,-14 16,-33 14,-81c-3,-55 -6,-66 -30,-83c-34,-26 -72,-17 -86,20c-20,55 -24,114 -7,139c20,31 83,34 109,5z"/>
   <path stroke="null" fill="#7f003f" id="svg_29" d="m860,472c0,-60 3,-130 6,-156c6,-40 10,-46 30,-46c13,0 24,3 25,8c0,4 1,42 2,84c1,42 5,80 10,84c13,14 53,-41 94,-129c18,-37 48,-55 77,-44c11,5 13,29 10,124c-1,65 -3,133 -4,151c0,30 -3,33 -26,30c-25,-3 -26,-5 -28,-88c-1,-68 -5,-84 -16,-82c-21,5 -24,9 -69,92c-37,70 -42,75 -75,78l-36,3l0,-109z"/>
   <path stroke="null" fill="#7f003f" id="svg_30" d="m1279,557c-27,-18 -35,-31 -37,-59c-3,-31 2,-40 30,-61c18,-14 45,-28 60,-32c35,-9 69,-42 62,-60c-13,-33 -73,-27 -112,12c-16,15 -22,16 -41,4c-39,-25 43,-91 112,-91c47,0 101,38 105,74c7,54 -12,72 -120,119c-44,19 -49,42 -14,58c20,10 31,8 59,-10c38,-23 46,-25 66,-12c19,12 -1,47 -39,66c-42,22 -92,19 -131,-8z"/>
   <path stroke="null" fill="#7f003f" id="svg_31" d="m1562,558c2,-19 11,-24 43,-28l40,-5l5,-125l5,-125l30,0l30,0l5,125l5,125l40,5c32,4 41,9 43,28c3,22 2,22 -123,22c-125,0 -126,0 -123,-22z"/>
   <path stroke="null" fill="#7f003f" id="svg_32" d="m1927,573c-4,-3 -7,-73 -7,-155l0,-148l30,0c29,0 30,1 30,49c0,56 21,87 48,72c9,-5 27,-33 41,-63c25,-51 46,-66 76,-54c12,4 9,16 -15,60c-35,64 -37,86 -10,93c18,5 21,12 18,62c-3,53 -5,57 -38,73c-35,17 -160,25 -173,11zm138,-53c17,-6 25,-17 25,-34c0,-36 -24,-51 -68,-40c-39,10 -48,27 -37,71c6,26 17,27 80,3z"/>
   <path stroke="null" fill="#7f003f" id="svg_33" d="m2270,474c0,-133 13,-165 75,-189c42,-16 46,-15 89,3c24,11 50,31 57,44c8,14 13,65 13,133l1,110l-30,0l-30,0l-5,-120c-5,-119 -5,-120 -32,-129c-20,-7 -33,-5 -52,8c-25,16 -26,19 -26,131l0,115l-30,0l-30,0l0,-106z"/>
   <path stroke="null" fill="#7f003f" id="svg_34" d="m2698,564c-23,-10 -42,-27 -51,-47c-55,-120 -2,-247 103,-247c54,0 120,48 120,87c0,21 -54,15 -68,-7c-18,-29 -85,-28 -106,2c-18,25 -21,103 -7,141c17,43 105,44 121,1c10,-25 43,-33 55,-14c16,26 -66,100 -110,99c-11,0 -37,-7 -57,-15z"/>
   <path stroke="null" fill="#7f003f" id="svg_35" d="m2972,558c2,-17 11,-24 33,-26c52,-6 55,-15 55,-143l0,-119l30,0l30,0l0,119c0,131 3,137 60,143c27,2 35,7 35,23c0,19 -8,20 -123,23l-123,3l3,-23z"/>
   <path stroke="null" fill="#7f003f" id="svg_36" d="m3330,425l0,-155l30,0l30,0l0,155l0,155l-30,0l-30,0l0,-155z"/>
   <path stroke="null" fill="#7f003f" id="svg_37" d="m3577,554c-50,-33 -71,-83 -63,-148c6,-58 26,-90 69,-116c41,-25 83,-25 125,0c92,56 88,221 -7,269c-52,27 -77,26 -124,-5zm114,-40c14,-8 31,-94 24,-123c-9,-42 -30,-61 -67,-61c-51,0 -68,24 -68,95c0,81 23,110 80,98c14,-3 28,-7 31,-9z"/>
   <path stroke="null" fill="#7f003f" id="svg_38" d="m3890,425l0,-155l24,0c27,0 36,28 36,115c0,33 5,55 13,58c7,2 34,-31 67,-84c47,-77 58,-89 82,-89l28,0l0,155l0,155l-30,0l-29,0l-3,-85c-2,-47 -7,-86 -13,-87c-5,-1 -32,37 -60,84c-46,81 -52,87 -82,88l-33,0l0,-155z"/>
  </g>
  <path d="m159.3,91.3c0,-1 2.72336,-4.48868 15,-6c13.89511,-1.71056 32.57825,-1.90262 42,2c6.66219,2.75957 10.65985,8.02726 10,16c-0.50171,6.06203 -4.87593,12.99658 -17,14c-8.96933,0.74232 -20.12785,-2.73547 -27,-10c-4.95558,-5.23853 -6.23686,-13.34346 -4,-19c2.65179,-6.70582 11.9281,-10.49359 24,-12c11.94893,-1.49107 24.44547,0.44798 32,7c4.2735,3.70638 4.91901,8.107 4,12c-1.54123,6.52876 -8,8 -12,8l-2,0l-2,0" id="svg_39" stroke="null" fill="none"/>
  <path d="m234.3,92.3c2,0 4.01363,0.32993 8,0c6.06204,-0.50171 13.99998,-1 23.99998,-1c8,0 10.9725,1.6475 12,6c0.91901,3.893 0.772,10.27709 -1,14c-2.14886,4.51469 -6,6 -11,6c-5,0 -9,0 -12.99998,-3l-4,-7l-2,-5l0,-3" id="svg_40" stroke="null" fill="none"/>
  <path d="m336.29999,36.3c2,0 4.41208,-1.03145 8,1c4.92261,2.78712 20.17224,9.44009 34,14c16.22839,5.35155 29.76102,10.50389 42,16c9.82513,4.41213 20,8 26,12c6,4 11.18799,9.02602 16,12c5.37997,3.32501 11.70547,6.34619 14,8c3.62799,2.61491 7.38687,2.91761 10,4c3.69553,1.53073 4,2 4,2l0,4l0,4l-1,2" id="svg_41" stroke="null" fill="none"/>
  <path d="m486.29999,115.3c0,0 2.9176,-0.61313 4,2c0.76538,1.84776 0.58578,2.58578 2,4c1.41422,1.41422 2,0 2,0l0,2l0,0" id="svg_42" stroke="null" fill="none"/>
  <polyline stroke-linecap="round" id="svg_43" points="312.3,31.30000000000001 311.3,31.30000000000001 " stroke="null" fill="none"/>
  <path transform="rotate(11 410.8 73.3)" stroke="null" d="m332.29999,23.3c0,2.04082 2.38721,5.495 6.03846,8.16327c4.6185,3.37512 7.77603,8.46288 12.07692,12.2449c7.60296,6.68573 16.71729,10.94219 26.16667,16.32653c8.77353,4.99923 15.23928,11.59075 24.15385,16.32653c5.63808,2.99517 12.70092,4.7704 18.11538,8.16327c4.84286,3.03468 10.22197,5.69357 16.10256,8.16327c4.1582,1.74634 8.05128,4.08163 12.07692,6.12245c4.02564,2.04082 9.65549,4.60511 12.07692,6.12245c5.41446,3.39287 10.0641,2.04082 14.08974,4.08163c4.02564,2.04082 8.05128,2.04082 10.0641,2.04082c2.01282,0 2.01282,2.04082 4.02564,2.04082c0,0 2.01282,0 2.01282,0c0,0 0,2.04082 0,2.04082c0,4.08163 -1.00641,8.16327 -1.00641,8.16327l-1.00641,0" id="svg_44" fill="none"/>
 </g>
</svg>