<?xml version="1.0" standalone="no"?>
<!DOCTYPE svg PUBLIC "-//W3C//DTD SVG 20010904//EN"
 "http://www.w3.org/TR/2001/REC-SVG-20010904/DTD/svg10.dtd">
<svg version="1.0" xmlns="http://www.w3.org/2000/svg"
 width="1289.000000pt" height="1289.000000pt" viewBox="0 0 1289.000000 1289.000000"
 preserveAspectRatio="xMidYMid meet">
<metadata>
Created by potrace 1.14, written by Peter Selinger 2001-2017
</metadata>
<g transform="translate(0.000000,1289.000000) scale(0.100000,-0.100000)"
fill="#000000" stroke="none">
<path d="M1700 6445 l0 -6445 4745 0 4745 0 0 6445 0 6445 -4745 0 -4745 0 0
-6445z m5702 4769 c178 -102 379 -219 448 -259 69 -40 190 -110 270 -155 80
-46 157 -92 173 -102 l27 -19 -2 -1097 -3 -1096 -290 -168 c-159 -92 -293
-168 -297 -168 -5 0 -8 496 -8 1103 l0 1103 -257 149 c-142 82 -341 197 -443
255 -163 94 -287 166 -610 353 -47 27 -173 99 -280 160 l-194 112 359 5 c198
3 456 6 572 8 l213 2 322 -186z m-1474 -886 c136 -78 268 -153 294 -167 26
-15 48 -28 48 -31 -1 -3 -316 -187 -702 -410 -954 -551 -1159 -670 -1185 -686
l-23 -14 0 -1032 c0 -866 -2 -1030 -13 -1018 -8 8 -76 123 -152 255 -76 132
-159 276 -185 320 -26 44 -90 155 -143 247 l-97 166 0 709 0 708 38 21 c20 11
264 152 542 314 278 161 645 374 815 473 171 99 351 204 400 233 50 29 96 53
103 53 7 1 124 -63 260 -141z m-506 -2491 c51 -30 230 -133 398 -229 168 -97
406 -234 530 -305 124 -72 375 -216 558 -321 l333 -191 477 275 c262 152 538
311 612 354 490 283 694 400 695 398 1 -2 -75 -136 -169 -299 -94 -163 -224
-388 -288 -500 l-118 -204 -197 -114 c-109 -63 -281 -163 -383 -221 -102 -59
-288 -166 -413 -238 -126 -73 -231 -132 -234 -132 -4 0 -179 100 -1103 631
-261 150 -547 314 -635 364 l-160 91 -3 347 c-1 191 0 347 3 347 2 0 46 -24
97 -53z"/>
</g>
</svg>
