<?xml version="1.0" encoding="utf-8"?>
<!-- Generator: Adobe Illustrator 26.0.3, SVG Export Plug-In . SVG Version: 6.00 Build 0)  -->
<!DOCTYPE svg PUBLIC "-//W3C//DTD SVG 1.1//EN" "http://www.w3.org/Graphics/SVG/1.1/DTD/svg11.dtd" [
	<!ENTITY ns_extend "http://ns.adobe.com/Extensibility/1.0/">
	<!ENTITY ns_ai "http://ns.adobe.com/AdobeIllustrator/10.0/">
	<!ENTITY ns_graphs "http://ns.adobe.com/Graphs/1.0/">
	<!ENTITY ns_vars "http://ns.adobe.com/Variables/1.0/">
	<!ENTITY ns_imrep "http://ns.adobe.com/ImageReplacement/1.0/">
	<!ENTITY ns_sfw "http://ns.adobe.com/SaveForWeb/1.0/">
	<!ENTITY ns_custom "http://ns.adobe.com/GenericCustomNamespace/1.0/">
	<!ENTITY ns_adobe_xpath "http://ns.adobe.com/XPath/1.0/">
]>
<svg version="1.1" xmlns:x="&ns_extend;" xmlns:i="&ns_ai;" xmlns:graph="&ns_graphs;"
	 xmlns="http://www.w3.org/2000/svg" xmlns:xlink="http://www.w3.org/1999/xlink" x="0px" y="0px" viewBox="0 0 949 1289"
	 style="enable-background:new 0 0 949 1289;" xml:space="preserve">
<style type="text/css">
	.st0{fill:none;}
	.st1{fill:#576269;}
	.st2{fill:#6EBFC2;}
	.st3{fill:#D15641;}
</style>
<metadata>
	<sfw  xmlns="&ns_sfw;">
		<slices></slices>
		<sliceSourceBounds  bottomLeftOrigin="true" height="1289" width="949" x="103" y="-2004"></sliceSourceBounds>
	</sfw>
</metadata>
<g id="Слой_2">
	<rect width="949" height="1289"/>
	<g>
		<rect x="128.82" y="749" class="st0" width="739.18" height="360"/>
		<path class="st1" d="M149.76,1041.96V748.84h64.94c30.64,0,52.26,6.27,64.86,18.81c12.6,12.54,18.89,34.19,18.89,64.94v115.16
			c0,32.17-6.41,55.92-19.22,71.24c-12.81,15.32-34.43,22.98-64.86,22.98H149.76z M191.64,1010.55h23.06
			c6.87,0,12.76-0.63,17.67-1.88c4.91-1.25,8.89-3.54,11.94-6.87c3.05-3.33,5.45-6.49,7.2-9.49c1.74-3,2.97-7.66,3.68-13.99
			c0.71-6.32,1.12-11.53,1.23-15.62c0.11-4.09,0.16-10.44,0.16-19.06c0-2.83,0-4.96,0-6.38v-94.22c0-5.34-0.03-9.59-0.08-12.76
			c-0.06-3.16-0.22-6.9-0.49-11.21c-0.27-4.31-0.68-7.71-1.23-10.22c-0.55-2.51-1.31-5.32-2.29-8.42c-0.98-3.11-2.21-5.53-3.68-7.28
			c-1.47-1.74-3.27-3.57-5.4-5.48c-2.13-1.91-4.58-3.33-7.36-4.25c-2.78-0.92-6.03-1.69-9.73-2.29c-3.71-0.6-7.85-0.9-12.43-0.9
			h-22.25V1010.55z"/>
		<path class="st1" d="M335.09,1041.96V748.84h115.16v31.41h-73.28v94.22h52.34v31.41h-52.34v104.69h73.28v31.41H335.09z"/>
		<path class="st1" d="M538.74,1044.91c-19.41,0-34.73-6-45.96-17.99c-11.23-11.99-16.85-27.92-16.85-47.76
			c0-31.19,13.96-59.1,41.88-83.75c-1.53-3.16-4.69-9.13-9.49-17.91c-4.8-8.78-8.45-15.81-10.96-21.1
			c-2.51-5.29-4.96-12.16-7.36-20.61c-2.4-8.45-3.6-16.49-3.6-24.13c0-19.63,5.67-35.5,17.01-47.6
			c11.34-12.11,26.61-18.16,45.8-18.16c17.99,0,32.96,4.99,44.9,14.97c11.94,9.98,17.91,23.42,17.91,40.32
			c0,7.63-1.2,15.38-3.6,23.23c-2.4,7.85-5.26,14.83-8.59,20.94c-3.33,6.11-7.61,12.57-12.84,19.38
			c-5.23,6.82-9.79,12.32-13.66,16.52c-3.87,4.2-8.42,8.92-13.66,14.15l41.88,62.81c1.96-4.36,3.65-9.81,5.07-16.36
			c1.42-6.54,2.37-11.64,2.86-15.29c0.49-3.65,1.33-10.55,2.54-20.69h41.88c0,13.31-2.56,27.1-7.69,41.38
			c-5.13,14.29-11.23,26.77-18.32,37.46c8.18,10.25,16.85,15.38,26.01,15.38v44.82c-2.73,0-5.32-0.14-7.77-0.41
			c-2.45-0.27-4.94-0.87-7.44-1.8c-2.51-0.93-4.64-1.69-6.38-2.29c-1.75-0.6-3.84-1.74-6.3-3.44c-2.45-1.69-4.23-2.83-5.32-3.43
			c-1.09-0.6-2.89-2.04-5.4-4.33c-2.51-2.29-4.04-3.65-4.58-4.09c-0.55-0.43-2.18-1.99-4.91-4.66c-2.73-2.67-4.15-4.06-4.25-4.17
			c-6.87,8.73-15.62,15.68-26.25,20.86C564.67,1042.31,552.48,1044.91,538.74,1044.91z M538.74,1010.55
			c13.3,0,25.52-6.98,36.64-20.94l-20.12-29.93c-1.42-2.29-3.84-5.64-7.28-10.06c-3.44-4.42-6.41-8.51-8.92-12.27
			c-2.51-3.76-4.31-7.28-5.4-10.55c-4.8,6.33-8.64,14.12-11.53,23.39c-2.89,9.27-4.33,18.92-4.33,28.95
			c0,9.16,1.64,16.68,4.91,22.57S531.32,1010.55,538.74,1010.55z M544.14,874.46c6.98-8.72,13.06-19.93,18.24-33.61
			c5.18-13.68,7.77-26.91,7.77-39.67c0-6.32-1.91-11.39-5.72-15.21c-3.82-3.82-8.89-5.72-15.21-5.72c-7.09,0-12.35,3.08-15.79,9.24
			c-3.43,6.16-5.15,13.55-5.15,22.16c0,7.09,0.92,14.78,2.78,23.06c1.85,8.29,3.71,15.08,5.56,20.36
			C538.47,860.37,540.97,866.83,544.14,874.46z"/>
		<path class="st1" d="M772.16,1044.91c-26.39,0-46.54-7.74-60.44-23.23c-13.9-15.48-21.67-36.64-23.31-63.47l41.88-10.47
			c2.07,41.88,16.03,62.81,41.88,62.81c20.94,0,31.41-10.47,31.41-31.41c0-6.22-0.85-11.97-2.54-17.26
			c-1.69-5.29-4.28-10.14-7.77-14.56c-3.49-4.42-6.65-7.96-9.49-10.63c-2.84-2.67-6.71-5.97-11.61-9.9l-52.34-41.88
			c-9.6-7.52-17.26-17.09-22.98-28.71c-5.73-11.61-8.59-24.83-8.59-39.67c0-21.59,6.71-38.77,20.12-51.53
			c13.41-12.76,31.19-19.14,53.32-19.14c23.77,0,42.67,5.81,56.68,17.42c14.01,11.61,22.66,28.05,25.93,49.32
			c0.33,2.29,0.71,5.45,1.14,9.49l-41.88,10.47c-0.11-1.85-0.38-4.63-0.82-8.34c-1.86-13.3-6.03-23.96-12.51-31.98
			c-6.49-8.01-16-12.02-28.54-12.02c-10.03,0-17.78,2.81-23.23,8.42c-5.46,5.62-8.18,13.44-8.18,23.47
			c0,16.47,6.98,30.26,20.94,41.38l52.34,41.88c27.92,22.57,41.88,49.56,41.88,80.97c0,21.49-6.62,38.28-19.87,50.38
			C812.32,1038.85,794.51,1044.91,772.16,1044.91z"/>
	</g>
	<g>
		<g>
			<polygon class="st2" points="265.84,595.34 206.84,493.34 206.84,351.39 397,241 458,276 265.84,387.34 			"/>
			<polygon class="st3" points="207,331 265,232 396,150.34 584,261 584,328 397,221 			"/>
		</g>
		<polygon class="st2" points="734.1,505.6 675.26,607.7 552.33,678.67 361.65,569.18 361.47,498.85 553.97,609.6 		"/>
		<polygon class="st3" points="534.6,688.73 419.86,688 283.64,615.38 283,397 343,362 344.33,579.18 		"/>
		<polygon class="st2" points="421.15,149.35 538.98,149.25 661.91,220.23 662.43,440.11 601.62,475.43 601.28,253.35 		"/>
		<polygon class="st3" points="679.49,230.56 736.23,330.29 741.45,484.57 552.64,594.31 492.33,559.85 679.75,450.11 		"/>
	</g>
</g>
<g id="Слой_3">
	<g>
	</g>
	<g>
	</g>
	<g>
	</g>
	<g>
	</g>
	<g>
	</g>
	<g>
	</g>
	<g>
	</g>
	<g>
	</g>
	<g>
	</g>
	<g>
	</g>
	<g>
	</g>
</g>
</svg>
