<?xml version="1.0" encoding="utf-8"?><svg viewBox="0 0 512 512" xmlns="http://www.w3.org/2000/svg" xmlns:xlink="http://www.w3.org/1999/xlink"><style>:root>svg{display:none}:root>svg:target{display:block}</style><svg fill="none" viewBox="0 0 48 48" id="facebook_black_logo_icon_147136" xmlns="http://www.w3.org/2000/svg"><path fill-rule="evenodd" clip-rule="evenodd" d="M0 24C0 10.745 10.745 0 24 0s24 10.745 24 24-10.745 24-24 24S0 37.255 0 24zm26.502 14.111V25.054h3.604l.478-4.5h-4.082l.006-2.252c0-1.173.111-1.802 1.797-1.802h2.253V12h-3.605c-4.33 0-5.854 2.183-5.854 5.854v2.701H18.4v4.5h2.7V38.11h5.402z" /></svg><svg fill="none" viewBox="0 0 48 48" id="twitter_black_logo_icon_147062" xmlns="http://www.w3.org/2000/svg"><path fill-rule="evenodd" clip-rule="evenodd" d="M0 24C0 10.745 10.745 0 24 0s24 10.745 24 24-10.745 24-24 24S0 37.255 0 24zm23.281-4.492l.05.83-.839-.102c-3.055-.39-5.724-1.712-7.99-3.932l-1.109-1.101-.285.813c-.604 1.814-.218 3.729 1.04 5.017.672.712.521.813-.637.39-.403-.136-.756-.238-.79-.187-.117.119.286 1.661.605 2.271.437.848 1.326 1.678 2.3 2.17l.823.39-.974.016c-.94 0-.974.017-.873.373.336 1.102 1.662 2.271 3.14 2.78l1.04.356-.906.542a9.452 9.452 0 01-4.5 1.254c-.755.017-1.376.085-1.376.136 0 .17 2.048 1.118 3.24 1.491 3.576 1.102 7.823.627 11.013-1.254 2.266-1.339 4.532-4 5.59-6.576.57-1.373 1.141-3.881 1.141-5.084 0-.78.05-.882.99-1.814.555-.542 1.075-1.135 1.176-1.305.168-.322.151-.322-.705-.034-1.427.509-1.629.441-.923-.322.52-.542 1.141-1.525 1.141-1.813 0-.051-.252.034-.537.186-.302.17-.974.424-1.477.577l-.907.288-.823-.56c-.453-.305-1.09-.644-1.426-.745-.857-.238-2.166-.204-2.938.068-2.099.762-3.425 2.728-3.274 4.88z"/></svg><svg data-name="Layer 1" viewBox="0 0 512 512" id="vk_icon_194156" xmlns="http://www.w3.org/2000/svg"><path d="M256 0C114.615 0 0 114.615 0 256s114.615 256 256 256 256-114.615 256-256S397.385 0 256 0zm136.363 342.9h-32.485a23.41 23.41 0 01-18.318-8.8c-9.742-12.231-28.934-33.918-49.085-43.233a7.666 7.666 0 00-10.916 6.928v32.128a12.974 12.974 0 01-12.974 12.977h-15.021c-19.534 0-61.6-11.891-95.119-60.719-28.56-41.6-41.291-73.84-48.715-99.98a10.3 10.3 0 019.922-13.093h32.862a15.226 15.226 0 0114.6 10.861c6.111 20.439 21.939 64.53 49.917 86.486a5.788 5.788 0 009.371-4.54v-51.466c0-10.171-4.408-20.347-11.288-28.3a7.878 7.878 0 015.946-13.046h50.666a9.838 9.838 0 019.838 9.837v69.325a5.468 5.468 0 008.636 4.456c9.3-6.62 17.265-16.4 24.591-27.393 9.22-13.828 20.471-36.686 26.115-48.549a13.457 13.457 0 0112.154-7.679h35.84a8.788 8.788 0 017.873 12.7c-9.044 18.14-26.659 51.418-43.235 70.942a13.877 13.877 0 001.623 19.54c10.805 9.232 27.673 26.3 45.859 54.729a10.305 10.305 0 01-8.657 15.889z"/></svg></svg>